<?xml version="1.0" encoding="utf-8"?>
<svg xmlns="http://www.w3.org/2000/svg"
	xmlns:xlink="http://www.w3.org/1999/xlink"
	width="40px" height="14px" viewBox="0 0 40 14">
<path fillRule="evenodd" d="M 37 10C 35.34 10 34 8.66 34 7 34 5.34 35.34 4 37 4 38.66 4 40 5.34 40 7 40 8.66 38.66 10 37 10ZM 24 12C 21.24 12 19 9.76 19 7 19 4.24 21.24 2 24 2 26.76 2 29 4.24 29 7 29 9.76 26.76 12 24 12ZM 7 14C 3.13 14-0 10.87-0 7-0 3.13 3.13-0 7-0 10.87-0 14 3.13 14 7 14 10.87 10.87 14 7 14Z" fill="rgb(54,61,65)" opacity="0.20"/></svg>