<?xml version="1.0" encoding="utf-8"?>
<svg xmlns="http://www.w3.org/2000/svg"
	xmlns:xlink="http://www.w3.org/1999/xlink"
	width="40px" height="14px" viewBox="0 0 40 14">
<path fillRule="evenodd" d="M 33 14C 29.13 14 26 10.87 26 7 26 3.13 29.13-0 33-0 36.87-0 40 3.13 40 7 40 10.87 36.87 14 33 14ZM 16 12C 13.24 12 11 9.76 11 7 11 4.24 13.24 2 16 2 18.76 2 21 4.24 21 7 21 9.76 18.76 12 16 12ZM 3 10C 1.34 10-0 8.66-0 7-0 5.34 1.34 4 3 4 4.66 4 6 5.34 6 7 6 8.66 4.66 10 3 10Z" fill="rgb(54,61,65)" opacity="0.20"/></svg>